Coordinates
version=1
nRows=13
nColumns=34
inDegrees=yes

Units are S.I. units (second, meters, Newtons, ...)
Angles are in degrees.

endheader
time	pelvis_tilt	pelvis_list	pelvis_rotation	pelvis_tx	pelvis_ty	pelvis_tz	hip_flexion_r	hip_adduction_r	hip_rotation_r	knee_angle_r	ankle_angle_r	subtalar_angle_r	mtp_angle_r	hip_flexion_l	hip_adduction_l	hip_rotation_l	knee_angle_l	socket_flexion	socket_adduction	socket_rotation	socket_tx	socket_ty	socket_tz	pros_ankle_rx	pros_ankle_ry	pros_ankle_rz	pros_ankle_tx	pros_ankle_ty	pros_ankle_tz	foot_flex	lumbar_extension	lumbar_bending	lumbar_rotation
      0.30000000	      1.60264429	     -3.80911298	     -1.45799576	     -0.37923646	      1.04727046	      0.34839289	      9.33412752	     -1.61060720	     -9.05358954	    -64.40339861	     -1.82220566	     12.14471036	     16.98239105	      3.72000458	     -2.70406580	     -1.05754232	     -9.24520171	      6.71224489	      0.00000000	      0.00000000	      0.00000000	     -0.02416246	      0.00000000	      0.00000000	      0.00000000	      0.00000000	      0.00000000	      0.00000000	      0.00000000	      5.80860442	    -19.45321484	     -5.79732665	      1.64974851
      0.30416667	      1.68258594	     -3.90700727	     -1.36571729	     -0.37387947	      1.04807269	      0.34807618	      9.82171031	     -1.52369790	     -9.17996110	    -64.36537969	     -0.89423008	     12.16305750	     17.04418376	      3.21254261	     -2.78445599	     -1.02426059	     -9.05682567	      6.73518464	      0.00000000	      0.00000000	      0.00000000	     -0.02392201	      0.00000000	      0.00000000	      0.00000000	      0.00000000	      0.00000000	      0.00000000	      0.00000000	      5.98309443	    -19.49421535	     -5.61287398	      1.51683812
      0.30833333	      1.77022962	     -4.00308073	     -1.27358921	     -0.36857759	      1.04887922	      0.34779393	     10.29515195	     -1.42221405	     -9.29470405	    -64.27839303	      0.03912435	     12.22131512	     17.10374860	      2.68672525	     -2.86583808	     -0.97120258	     -8.82660054	      6.77357495	      0.00000000	      0.00000000	      0.00000000	     -0.02369969	      0.00000000	      0.00000000	      0.00000000	      0.00000000	      0.00000000	      0.00000000	      0.00000000	      6.10619319	    -19.53108481	     -5.45083372	      1.36548445
      0.31250000	      1.85128824	     -4.10393646	     -1.19246969	     -0.36329328	      1.04967148	      0.34750287	     10.77010354	     -1.33184199	     -9.43041892	    -64.13076768	      0.93324564	     12.29411844	     17.15650809	      2.16597291	     -2.95270113	     -0.93195429	     -8.58166448	      6.82794872	      0.00000000	      0.00000000	      0.00000000	     -0.02348829	      0.00000000	      0.00000000	      0.00000000	      0.00000000	      0.00000000	      0.00000000	      0.00000000	      6.25163054	    -19.57111276	     -5.28274251	      1.21728181
      0.31666667	      1.94616393	     -4.19793608	     -1.10326172	     -0.35806197	      1.05048053	      0.34722637	     11.21533947	     -1.22661188	     -9.54984350	    -63.93404411	      1.84609380	     12.42065771	     17.19776677	      1.61152390	     -3.03449167	     -0.87013854	     -8.26727178	      6.92086405	      0.00000000	      0.00000000	      0.00000000	     -0.02322135	      0.00000000	      0.00000000	      0.00000000	      0.00000000	      0.00000000	      0.00000000	      0.00000000	      6.36572533	    -19.62081141	     -5.09487443	      1.05206959
      0.32083333	      2.03172161	     -4.30784843	     -1.02286020	     -0.35282349	      1.05126209	      0.34695306	     11.65677155	     -1.12837100	     -9.70874886	    -63.66545345	      2.62874814	     12.52915238	     17.22213354	      1.07838623	     -3.13468249	     -0.84856648	     -7.97831006	      7.00842378	      0.00000000	      0.00000000	      0.00000000	     -0.02296560	      0.00000000	      0.00000000	      0.00000000	      0.00000000	      0.00000000	      0.00000000	      0.00000000	      6.50685142	    -19.67360401	     -4.92653335	      0.91553597
      0.32500000	      2.39632911	     -4.27196915	     -1.00810527	     -0.34725668	      1.05261993	      0.34676333	     11.73979708	     -1.24228480	     -9.85669839	    -63.30749093	      3.42773374	     13.06623006	     16.88556206	     -0.14708198	     -3.06267379	     -0.84394411	     -6.66584282	      7.70680935	      0.00000000	      0.00000000	      0.00000000	     -0.02240294	      0.00000000	      0.00000000	      0.00000000	      0.00000000	      0.00000000	      0.00000000	      0.00000000	      6.60421011	    -20.03767680	     -4.92206946	      0.72236868
      0.32916667	      2.44366825	     -4.40852323	     -0.94329892	     -0.34218134	      1.05330290	      0.34655756	     12.21347375	     -1.07404121	     -9.97580967	    -62.93504166	      4.08900786	     13.01167791	     16.91863986	     -0.55253316	     -3.20015633	     -0.84953206	     -6.60438846	      7.66355227	      0.00000000	      0.00000000	      0.00000000	     -0.02214725	      0.00000000	      0.00000000	      0.00000000	      0.00000000	      0.00000000	      0.00000000	      0.00000000	      6.74929183	    -20.06860233	     -4.74497876	      0.67449686
      0.33333333	      2.47418620	     -4.51443741	     -0.87667586	     -0.33710998	      1.05396291	      0.34631947	     12.68545599	     -0.95362679	    -10.11550866	    -62.49660716	      4.61343521	     13.00712408	     16.93958271	     -0.93308438	     -3.29882337	     -0.86582246	     -6.53672560	      7.62898212	      0.00000000	      0.00000000	      0.00000000	     -0.02185773	      0.00000000	      0.00000000	      0.00000000	      0.00000000	      0.00000000	      0.00000000	      0.00000000	      6.85974929	    -20.11271509	     -4.59509981	      0.61520823
      0.33750000	      2.54919695	     -4.69270281	     -0.79225098	     -0.33195169	      1.05465502	      0.34604925	     13.07844035	     -0.76438422	    -10.29615781	    -62.01706658	      5.38290049	     13.19777757	     16.86523050	     -1.48199840	     -3.48127245	     -0.79385764	     -6.14785698	      7.78669064	      0.00000000	      0.00000000	      0.00000000	     -0.02167678	      0.00000000	      0.00000000	      0.00000000	      0.00000000	      0.00000000	      0.00000000	      0.00000000	      6.97018720	    -20.15481979	     -4.25557704	      0.40809324
      0.34166667	      2.58804705	     -4.69625695	     -0.77962963	     -0.32706518	      1.05526820	      0.34590527	     13.57974323	     -0.76807696	    -10.39511042	    -61.56258499	      5.53441422	     13.18610092	     16.86486027	     -1.84073458	     -3.46964108	     -0.78866897	     -6.17081358	      7.66925042	      0.00000000	      0.00000000	      0.00000000	     -0.02120644	      0.00000000	      0.00000000	      0.00000000	      0.00000000	      0.00000000	      0.00000000	      0.00000000	      7.04771747	    -20.21086823	     -4.24433239	      0.39732092
      0.34583333	      2.63328505	     -4.93016216	     -0.65511202	     -0.32196515	      1.05592508	      0.34564928	     13.94262836	     -0.46440211	    -10.57368137	    -60.93095501	      6.53760347	     13.22033019	     16.87785143	     -2.27970550	     -3.72188524	     -0.75894866	     -5.95139795	      7.76414815	      0.00000000	      0.00000000	      0.00000000	     -0.02104063	      0.00000000	      0.00000000	      0.00000000	      0.00000000	      0.00000000	      0.00000000	      0.00000000	      7.22614599	    -20.21561395	     -3.92169833	      0.27561573
      0.35000000	      2.99345787	     -4.98340884	     -0.61437681	     -0.31667255	      1.05716535	      0.34543031	     13.94183205	     -0.43386371	    -10.74412698	    -60.24987717	      7.17802112	     13.59698761	     16.09718567	     -3.41099469	     -3.75378534	     -0.75618436	     -4.80350594	      8.38458373	      0.00000000	      0.00000000	      0.00000000	     -0.02046417	      0.00000000	      0.00000000	      0.00000000	      0.00000000	      0.00000000	      0.00000000	      0.00000000	      7.31291822	    -20.65163843	     -3.70999004	      0.09358853
